<?xml version="1.0" encoding="UTF-8"?>
<svg width="61.979mm" height="20.406mm" version="1.1" viewBox="0 0 61.979 20.406" xmlns="http://www.w3.org/2000/svg">
 <g transform="translate(-64.26 -106.88)" fill="#fff" fill-rule="evenodd">
  <path d="m64.26 127.2c1.0055-2.3129 3.8544-5.9687 4.9609-5.7641 1.2028 0.14543 1.9155 1.3035 2.1734 3.4018-0.83807-0.15186-1.7339-0.47708-2.4568-0.28349-1.8016 0.25166-3.1622 1.6498-4.6775 2.6458z"/>
  <path d="m70.355 115.24c0.51122-1.3436 3.1177-5.3767 5.1027-5.5279 1.407 0.17788 1.932 1.9857 2.1261 3.1183-0.66939-0.2282-1.2925-0.59512-2.0789-0.47247-2.0889 0.26927-3.4525 1.8858-5.1499 2.8821z"/>
  <path d="m81.175 111.56c0.85731-1.8258 2.8652-4.6653 4.5357-4.6774 2.0487 0.16748 3.2944 1.9807 4.4412 4.016-1.2633-0.56651-2.5345-1.1129-3.9215-1.3702-1.3061 0.0708-3.1256 0.9629-5.0554 2.0316z"/>
  <path d="m80.419 118.55c1.6065 0.10742 2.8243 2.0782 3.5435 4.2995-1.1762-0.45594-2.2553-1.203-3.5435-1.3229-1.4127-0.1503-3.0868 1.9213-4.6302 2.8821 0.13721-2.034 2.6632-5.7534 4.6302-5.8586z"/>
  <path d="m89.868 123.18c-0.01671-1.8426 3.9366-4.8516 5.3862-4.9137 2.5476 0.0168 4.7565 3.4532 5.8586 5.6224-1.7909-0.71938-3.3072-2.098-5.3862-2.1261-2.0475 0.0941-3.9273 0.85884-5.8586 1.4174z"/>
  <path d="m98.514 110.75c0.94305-1.387 1.9342-3.3002 3.638-3.6853 2.2784 0.30513 4.229 2.8942 5.4807 5.5279-2.4494-1.3009-3.7365-2.2039-6.1657-2.4332-1.3887-0.038-1.9795 0.33199-2.9529 0.59058z"/>
  <path d="m111.98 113.16c0.92584-0.26281 1.781-0.64343 2.8821-0.61421 1.0675 0.134 3.3413 1.9831 5.0082 2.9766-0.69597-2.0324-2.6577-5.2764-5.1499-5.6224-1.5999 0.1427-2.3172 1.84-2.7403 3.26z"/>
  <path d="m109.38 119.02c2.8378 0.24458 4.1976 3.9342 5.6224 6.2839-1.8483-1.3403-3.9646-3.0431-5.7641-3.449-1.1481 0.0167-2.4136 0.56126-3.6853 1.1339 0.62765-1.7895 1.9887-3.8258 3.827-3.9688z"/>
  <path d="m119.33 124.57c-0.11139-1.1253 0.86683-3.0365 2.2915-3.2364 1.8102 0.1819 4.634 4.6651 4.6216 5.9479-1.4525-1.5354-3.6649-3.5552-4.7418-3.6422-0.75876 0.0571-1.532 0.45552-2.1713 0.93072z"/>
 </g>
</svg>
